<svg width="2400" height="800" viewBox="0 0 2400 800" fill="none" xmlns="http://www.w3.org/2000/svg">
<rect width="2400" height="800" fill="white"/>
<path d="M455.656 293.988C449.386 286.565 440.163 282.283 430.447 282.283H252L486.536 574.47C504.582 596.953 538.43 598.039 557.881 576.759L951.971 145.594L904.655 103.535L596.236 434.399C590.105 440.975 579.607 440.718 573.805 433.85L455.656 293.988Z" fill="black" stroke="black"/>
<path d="M973 132.826C973 102.546 948.454 78 918.174 78C887.894 78 863.348 102.546 863.348 132.826C863.348 163.106 887.894 187.652 918.174 187.652C948.454 187.652 973 163.106 973 132.826Z" fill="black" stroke="black"/>
<path d="M556.482 637.836L840.818 327.467C842.495 325.636 845.543 326.519 845.983 328.962L866.101 440.793C868.841 456.027 864.371 471.672 853.996 483.16L641.196 718.76C640.062 720.015 638.116 720.085 636.894 718.915L556.619 642.03C555.441 640.901 555.38 639.039 556.482 637.836Z" fill="black" stroke="black"/>
<path d="M1115 563V322.7H1171.25V563H1115ZM1093.4 399.75V353.4H1192.85V399.75H1093.4ZM1241.19 563V322.7H1297.44V420.35L1288.44 386.15C1295.34 366.95 1308.24 351.9 1327.14 341.1C1346.34 330.3 1368.99 324.95 1395.09 324.95V380.75C1392.99 380.45 1390.74 380.3 1388.34 380.3C1385.94 380 1383.84 379.85 1382.04 379.85C1359.99 379.85 1342.14 386.45 1328.49 399.65C1315.14 412.55 1308.44 431.3 1308.44 455.9V563H1241.19ZM1513.01 566.15C1482.01 566.15 1455.61 557.9 1433.86 541.4C1412.41 524.9 1399.66 501.65 1395.66 471.65L1448.76 462.65C1450.86 479.75 1457.31 493 1468.11 502.4C1479.21 511.8 1494.56 516.5 1514.36 516.5C1530.56 516.5 1543.01 513.2 1551.71 506.6C1560.71 499.7 1565.21 491.3 1565.21 481.4C1565.21 472.3 1561.76 465.1 1554.86 459.8C1548.26 454.2 1539.91 450 1529.81 447.2C1519.71 444.1 1507.31 440.85 1492.61 437.45C1478.51 434.35 1465.56 430.45 1453.76 425.75C1442.26 421.05 1431.71 413.7 1422.11 403.7C1412.81 393.7 1408.16 380.15 1408.16 363.05C1408.16 342.05 1417.31 324.5 1435.61 310.4C1454.21 296 1479.06 288.8 1510.16 288.8C1538.06 288.8 1561.76 296.3 1581.26 311.3C1600.76 326 1611.76 347.35 1614.26 375.35L1562.06 384.8C1560.56 370.4 1554.86 359.05 1544.96 350.75C1535.36 342.45 1523.06 338.3 1507.46 338.3C1493.36 338.3 1482.16 341.45 1473.86 347.75C1465.86 353.75 1461.86 361.4 1461.86 370.7C1461.86 378.4 1464.86 384.8 1470.86 389.8C1477.16 394.8 1484.76 398.5 1493.66 400.9C1502.86 403.3 1514.06 406.1 1527.26 409.3C1542.56 412.7 1556.36 416.9 1568.66 421.9C1581.26 426.6 1591.96 434.1 1600.76 444.4C1609.56 454.4 1613.96 467.75 1613.96 484.45C1613.96 507.1 1604.66 525.7 1586.06 540.25C1567.76 554.85 1543.41 566.15 1513.01 566.15ZM1643.39 563V322.7H1709.89V563H1643.39ZM1642.49 284.9V228.2H1711.69V284.9H1642.49ZM1757.68 563V322.7H1813.93V369.05L1807.63 336.2C1813.93 332.2 1820.83 328.75 1828.33 325.85C1836.13 322.65 1844.38 320.15 1853.08 318.35C1861.78 316.55 1870.48 315.65 1879.18 315.65C1900.18 315.65 1917.58 320.3 1931.38 329.6C1945.48 338.9 1955.88 351.95 1962.58 368.75C1969.28 385.25 1972.63 404.45 1972.63 426.35V563H1906.38V432.65C1906.38 412.85 1902.28 397.7 1894.08 387.2C1886.18 376.4 1873.78 371 1856.88 371C1844.58 371 1833.68 373.7 1824.18 379.1C1814.68 384.5 1807.33 392.7 1802.13 403.7C1797.23 414.7 1794.78 428 1794.78 443.6V563H1757.68ZM2109.82 566.15C2084.02 566.15 2061.67 560.15 2042.77 548.15C2024.17 536.15 2009.82 519.5 1999.72 498.2C1989.62 476.9 1984.57 452.15 1984.57 423.95C1984.57 395.75 1989.62 371.15 1999.72 350.15C2009.82 328.85 2024.02 312.35 2042.32 300.65C2060.92 288.95 2082.82 283.1 2108.02 283.1C2126.32 283.1 2142.67 286.45 2157.07 293.15C2171.77 299.85 2183.72 309.05 2192.92 320.75C2202.42 332.45 2208.12 345.5 2210.02 359.9L2171.32 359.9C2168.52 347.3 2161.97 336.8 2151.67 328.4C2141.67 319.7 2128.12 315.35 2111.02 315.35C2091.22 315.35 2075.62 323.5 2064.22 339.8C2052.82 355.8 2047.12 377.4 2047.12 404.6V433.1C2047.12 461.3 2053.12 483.35 2065.12 499.25C2077.42 514.85 2093.92 522.65 2114.62 522.65C2135.62 522.65 2150.77 515.6 2160.07 501.5C2169.67 487.4 2174.47 467.75 2174.47 442.55H2124.82V405.65H2229.37V563H2187.52V516.65L2193.82 517.55C2187.52 530.45 2178.92 540.85 2168.02 548.75C2157.12 556.65 2144.62 562.15 2130.52 565.25C2124.22 565.85 2117.32 566.15 2109.82 566.15ZM2290.43 563V522.5H2346.68V363.2H2290.43V322.7H2346.68V248.9H2382.88V322.7H2443.18V363.2H2382.88V522.5H2443.18V563H2290.43Z" fill="black"/>
</svg> 