<svg width="2400" height="800" viewBox="0 0 2400 800" fill="none" xmlns="http://www.w3.org/2000/svg">
<rect width="2400" height="800" fill="white"/>
<path d="M719 563V322.7H775.25V563H719ZM697.4 399.75V353.4H796.85V399.75H697.4ZM845.19 563V322.7H901.44V420.35L892.44 386.15C899.34 366.95 912.24 351.9 931.14 341.1C950.34 330.3 972.99 324.95 999.09 324.95V380.75C996.99 380.45 994.74 380.3 992.34 380.3C989.94 380 987.84 379.85 986.04 379.85C963.99 379.85 946.14 386.45 932.49 399.65C919.14 412.55 912.44 431.3 912.44 455.9V563H845.19ZM1117.01 566.15C1086.01 566.15 1059.61 557.9 1037.86 541.4C1016.41 524.9 1003.66 501.65 999.66 471.65L1052.76 462.65C1054.86 479.75 1061.31 493 1072.11 502.4C1083.21 511.8 1098.56 516.5 1118.36 516.5C1134.56 516.5 1147.01 513.2 1155.71 506.6C1164.71 499.7 1169.21 491.3 1169.21 481.4C1169.21 472.3 1165.76 465.1 1158.86 459.8C1152.26 454.2 1143.91 450 1133.81 447.2C1123.71 444.1 1111.31 440.85 1096.61 437.45C1082.51 434.35 1069.56 430.45 1057.76 425.75C1046.26 421.05 1035.71 413.7 1026.11 403.7C1016.81 393.7 1012.16 380.15 1012.16 363.05C1012.16 342.05 1021.31 324.5 1039.61 310.4C1058.21 296 1083.06 288.8 1114.16 288.8C1142.06 288.8 1165.76 296.3 1185.26 311.3C1204.76 326 1215.76 347.35 1218.26 375.35L1166.06 384.8C1164.56 370.4 1158.86 359.05 1148.96 350.75C1139.36 342.45 1127.06 338.3 1111.46 338.3C1097.36 338.3 1086.16 341.45 1077.86 347.75C1069.86 353.75 1065.86 361.4 1065.86 370.7C1065.86 378.4 1068.86 384.8 1074.86 389.8C1081.16 394.8 1088.76 398.5 1097.66 400.9C1106.86 403.3 1118.06 406.1 1131.26 409.3C1146.56 412.7 1160.36 416.9 1172.66 421.9C1185.26 426.6 1195.96 434.1 1204.76 444.4C1213.56 454.4 1217.96 467.75 1217.96 484.45C1217.96 507.1 1208.66 525.7 1190.06 540.25C1171.76 554.85 1147.41 566.15 1117.01 566.15ZM1247.39 563V322.7H1313.89V563H1247.39ZM1246.49 284.9V228.2H1315.69V284.9H1246.49ZM1361.68 563V322.7H1417.93V369.05L1411.63 336.2C1417.93 332.2 1424.83 328.75 1432.33 325.85C1440.13 322.65 1448.38 320.15 1457.08 318.35C1465.78 316.55 1474.48 315.65 1483.18 315.65C1504.18 315.65 1521.58 320.3 1535.38 329.6C1549.48 338.9 1559.88 351.95 1566.58 368.75C1573.28 385.25 1576.63 404.45 1576.63 426.35V563H1510.38V432.65C1510.38 412.85 1506.28 397.7 1498.08 387.2C1490.18 376.4 1477.78 371 1460.88 371C1448.58 371 1437.68 373.7 1428.18 379.1C1418.68 384.5 1411.33 392.7 1406.13 403.7C1401.23 414.7 1398.78 428 1398.78 443.6V563H1361.68ZM1713.82 566.15C1688.02 566.15 1665.67 560.15 1646.77 548.15C1628.17 536.15 1613.82 519.5 1603.72 498.2C1593.62 476.9 1588.57 452.15 1588.57 423.95C1588.57 395.75 1593.62 371.15 1603.72 350.15C1613.82 328.85 1628.02 312.35 1646.32 300.65C1664.92 288.95 1686.82 283.1 1712.02 283.1C1730.32 283.1 1746.67 286.45 1761.07 293.15C1775.77 299.85 1787.72 309.05 1796.92 320.75C1806.42 332.45 1812.12 345.5 1814.02 359.9L1775.32 359.9C1772.52 347.3 1765.97 336.8 1755.67 328.4C1745.67 319.7 1732.12 315.35 1715.02 315.35C1695.22 315.35 1679.62 323.5 1668.22 339.8C1656.82 355.8 1651.12 377.4 1651.12 404.6V433.1C1651.12 461.3 1657.12 483.35 1669.12 499.25C1681.42 514.85 1697.92 522.65 1718.62 522.65C1739.62 522.65 1754.77 515.6 1764.07 501.5C1773.67 487.4 1778.47 467.75 1778.47 442.55H1728.82V405.65H1833.37V563H1791.52V516.65L1797.82 517.55C1791.52 530.45 1782.92 540.85 1772.02 548.75C1761.12 556.65 1748.62 562.15 1734.52 565.25C1728.22 565.85 1721.32 566.15 1713.82 566.15ZM1894.43 563V522.5H1950.68V363.2H1894.43V322.7H1950.68V248.9H1986.88V322.7H2047.18V363.2H1986.88V522.5H2047.18V563H1894.43Z" fill="black"/>
</svg>