<svg width="836" height="248" viewBox="0 0 836 248" fill="none" xmlns="http://www.w3.org/2000/svg">
<path d="M100.968 226V39.75H130.468V226H100.968ZM158.834 226V90.75H185.834V117.25L182.584 113.75C185.917 105.25 191.25 98.8333 198.584 94.5C205.917 90 214.417 87.75 224.084 87.75C234.084 87.75 242.917 89.9167 250.584 94.25C258.25 98.5833 264.25 104.583 268.584 112.25C272.917 119.917 275.084 128.75 275.084 138.75V226H247.084V146.25C247.084 139.417 245.834 133.667 243.334 129C240.834 124.167 237.25 120.5 232.584 118C228.084 115.333 222.917 114 217.084 114C211.25 114 206 115.333 201.334 118C196.834 120.5 193.334 124.167 190.834 129C188.334 133.833 187.084 139.583 187.084 146.25V226H158.834Z" fill="black"/>
<path d="M449.727 227V91.75H477.977V227H449.727ZM449.727 73.25V40.75H477.977V73.25H449.727ZM503.506 227V37.75H531.756V164.5L520.756 161.75L588.506 91.75H623.756L572.756 146L626.006 227H593.506L546.006 155.25L562.756 153L522.756 195.5L531.756 176.75V227H503.506ZM696.352 228.5C682.185 228.5 671.185 224.5 663.352 216.5C655.519 208.5 651.602 197.25 651.602 182.75V117.25H627.852V91.75H631.602C637.935 91.75 642.852 89.9167 646.352 86.25C649.852 82.5833 651.602 77.5833 651.602 71.25V60.75H679.852V91.75H710.602V117.25H679.852V181.5C679.852 186.167 680.602 190.167 682.102 193.5C683.602 196.667 686.019 199.167 689.352 201C692.685 202.667 697.019 203.5 702.352 203.5C703.685 203.5 705.185 203.417 706.852 203.25C708.519 203.083 710.102 202.917 711.602 202.75V227C709.269 227.333 706.685 227.667 703.852 228C701.019 228.333 698.519 228.5 696.352 228.5Z" fill="black"/>
<path d="M337.773 92.2179H430.603V121.356H294.928L337.773 92.2179Z" fill="black"/>
<path d="M294.928 195.659H430.603L387.758 224.797H294.928V195.659Z" fill="black"/>
<path d="M430.601 121.357L294.929 224.797L294.927 195.659L430.603 92.218L430.601 121.357Z" fill="#595959"/>
</svg>
