<svg width="2400" height="800" viewBox="0 0 2400 800" fill="none" xmlns="http://www.w3.org/2000/svg">
<rect width="2400" height="800" fill="white"/>
<path d="M455.656 293.988C449.386 286.565 440.163 282.283 430.447 282.283H252L486.536 574.47C504.582 596.953 538.43 598.039 557.881 576.759L951.971 145.594L904.655 103.535L596.236 434.399C590.105 440.975 579.607 440.718 573.805 433.85L455.656 293.988Z" fill="black" stroke="black"/>
<path d="M973 132.826C973 102.546 948.454 78 918.174 78C887.894 78 863.348 102.546 863.348 132.826C863.348 163.106 887.894 187.652 918.174 187.652C948.454 187.652 973 163.106 973 132.826Z" fill="black" stroke="black"/>
<path d="M556.482 637.836L840.818 327.467C842.495 325.636 845.543 326.519 845.983 328.962L866.101 440.793C868.841 456.027 864.371 471.672 853.996 483.16L641.196 718.76C640.062 720.015 638.116 720.085 636.894 718.915L556.619 642.03C555.441 640.901 555.38 639.039 556.482 637.836Z" fill="black" stroke="black"/>
<path d="M1179.45 563L1041.75 248H1105.2L1228.05 532.85H1191.6L1315.8 248H1374.3L1237.05 563H1179.45ZM1421.5 653.45C1409.8 653.45 1398.1 651.5 1386.4 647.6C1374.7 643.7 1364.95 638.3 1357.15 631.4L1379.65 590C1385.35 595.1 1391.8 599.15 1399 602.15C1406.2 605.15 1413.55 606.65 1421.05 606.65C1431.25 606.65 1439.5 604.1 1445.8 599C1452.1 593.9 1457.95 585.35 1463.35 573.35L1477.3 541.85L1481.8 535.1L1572.7 322.7H1626.7L1514.2 582.35C1506.7 600.35 1498.3 614.6 1489 625.1C1480 635.6 1469.8 642.95 1458.4 647.15C1447.3 651.35 1435 653.45 1421.5 653.45ZM1471 571.55L1362.55 322.7H1421.05L1509.25 530.15L1471 571.55ZM1637.66 563V527.45L1785.71 348.35L1796.06 367.7H1640.36V322.7H1841.06V358.25L1693.01 537.35L1681.76 518H1845.11V563H1637.66ZM2045.01 563V514.4L2041.86 504.05V419C2041.86 402.5 2036.91 389.75 2027.01 380.75C2017.11 371.45 2002.11 366.8 1982.01 366.8C1968.51 366.8 1955.16 368.9 1941.96 373.1C1929.06 377.3 1918.11 383.15 1909.11 390.65L1887.06 349.7C1899.96 339.8 1915.26 332.45 1932.96 327.65C1950.96 322.55 1969.56 320 1988.76 320C2023.56 320 2050.41 328.4 2069.31 345.2C2088.51 361.7 2098.11 387.35 2098.11 422.15V563H2045.01ZM1969.41 566.15C1951.41 566.15 1935.66 563.15 1922.16 557.15C1908.66 550.85 1898.16 542.3 1890.66 531.5C1883.46 520.4 1879.86 507.95 1879.86 494.15C1879.86 480.65 1883.01 468.5 1889.31 457.7C1895.91 446.9 1906.56 438.35 1921.26 432.05C1935.96 425.75 1955.46 422.6 1979.76 422.6H2049.51V459.95H1983.81C1964.61 459.95 1951.71 463.1 1945.11 469.4C1938.51 475.4 1935.21 482.9 1935.21 491.9C1935.21 502.1 1939.26 510.2 1947.36 516.2C1955.46 522.2 1966.71 525.2 1981.11 525.2C1994.91 525.2 2007.21 522.05 2018.01 515.75C2029.11 509.45 2037.06 500.15 2041.86 487.85L2051.31 521.6C2045.91 535.7 2036.16 546.65 2022.06 554.45C2008.26 562.25 1990.71 566.15 1969.41 566.15Z" fill="black"/>
</svg>
