<svg width="2400" height="800" viewBox="0 0 2400 800" fill="none" xmlns="http://www.w3.org/2000/svg">
<rect width="2400" height="800" fill="white"/>
<path d="M783.45 563L645.75 248H709.2L832.05 532.85H795.6L919.8 248H978.3L841.05 563H783.45ZM1025.5 653.45C1013.8 653.45 1002.1 651.5 990.401 647.6C978.701 643.7 968.951 638.3 961.151 631.4L983.651 590C989.351 595.1 995.801 599.15 1003 602.15C1010.2 605.15 1017.55 606.65 1025.05 606.65C1035.25 606.65 1043.5 604.1 1049.8 599C1056.1 593.9 1061.95 585.35 1067.35 573.35L1081.3 541.85L1085.8 535.1L1176.7 322.7H1230.7L1118.2 582.35C1110.7 600.35 1102.3 614.6 1093 625.1C1084 635.6 1073.8 642.95 1062.4 647.15C1051.3 651.35 1039 653.45 1025.5 653.45ZM1075 571.55L966.551 322.7H1025.05L1113.25 530.15L1075 571.55ZM1241.66 563V527.45L1389.71 348.35L1400.06 367.7H1244.36V322.7H1445.06V358.25L1297.01 537.35L1285.76 518H1449.11V563H1241.66ZM1649.01 563V514.4L1645.86 504.05V419C1645.86 402.5 1640.91 389.75 1631.01 380.75C1621.11 371.45 1606.11 366.8 1586.01 366.8C1572.51 366.8 1559.16 368.9 1545.96 373.1C1533.06 377.3 1522.11 383.15 1513.11 390.65L1491.06 349.7C1503.96 339.8 1519.26 332.45 1536.96 327.65C1554.96 322.55 1573.56 320 1592.76 320C1627.56 320 1654.41 328.4 1673.31 345.2C1692.51 361.7 1702.11 387.35 1702.11 422.15V563H1649.01ZM1573.41 566.15C1555.41 566.15 1539.66 563.15 1526.16 557.15C1512.66 550.85 1502.16 542.3 1494.66 531.5C1487.46 520.4 1483.86 507.95 1483.86 494.15C1483.86 480.65 1487.01 468.5 1493.31 457.7C1499.91 446.9 1510.56 438.35 1525.26 432.05C1539.96 425.75 1559.46 422.6 1583.76 422.6H1653.51V459.95H1587.81C1568.61 459.95 1555.71 463.1 1549.11 469.4C1542.51 475.4 1539.21 482.9 1539.21 491.9C1539.21 502.1 1543.26 510.2 1551.36 516.2C1559.46 522.2 1570.71 525.2 1585.11 525.2C1598.91 525.2 1611.21 522.05 1622.01 515.75C1633.11 509.45 1641.06 500.15 1645.86 487.85L1655.31 521.6C1649.91 535.7 1640.16 546.65 1626.06 554.45C1612.26 562.25 1594.71 566.15 1573.41 566.15Z" fill="black"/>
</svg>
