<svg width="800" height="800" viewBox="0 0 800 800" fill="none" xmlns="http://www.w3.org/2000/svg">
<rect width="800" height="800" fill="white"/>
<path d="M243.656 303.988C237.386 296.565 228.163 292.283 218.447 292.283H40L274.536 584.47C292.582 606.953 326.43 608.039 345.881 586.759L739.971 155.594L692.655 113.535L384.236 444.399C378.105 450.975 367.607 450.718 361.805 443.85L243.656 303.988Z" fill="black" stroke="black"/>
<path d="M761 142.826C761 112.546 736.454 88 706.174 88C675.894 88 651.348 112.546 651.348 142.826C651.348 173.106 675.894 197.652 706.174 197.652C736.454 197.652 761 173.106 761 142.826Z" fill="black" stroke="black"/>
<path d="M344.482 647.836L628.818 337.467C630.495 335.636 633.543 336.519 633.983 338.962L654.101 450.793C656.841 466.027 652.371 481.672 641.996 493.16L429.196 728.76C428.062 730.015 426.116 730.085 424.894 728.915L344.619 652.03C343.441 650.901 343.38 649.039 344.482 647.836Z" fill="black" stroke="black"/>
</svg>
